<?xml version="1.0" encoding="utf-8"?>
<!-- Generator: Adobe Illustrator 21.0.0, SVG Export Plug-In . SVG Version: 6.00 Build 0)  -->
<svg version="1.1" id="图层_1" xmlns="http://www.w3.org/2000/svg" xmlns:xlink="http://www.w3.org/1999/xlink" x="0px" y="0px"
	 viewBox="0 0 247.9 250.9" style="enable-background:new 0 0 247.9 250.9;" xml:space="preserve">
<style type="text/css">
	.st0{fill:url(#SVGID_1_);}
	.st1{fill:#00524B;}
	.st2{fill:none;stroke:#00524B;stroke-width:4;stroke-miterlimit:10;}
</style>
<radialGradient id="SVGID_1_" cx="2326.2026" cy="-2923.8669" r="1707.25" gradientTransform="matrix(5.324907e-02 0 0 -5.302653e-02 -45.3607 -80.048)" gradientUnits="userSpaceOnUse">
	<stop  offset="0" style="stop-color:#FFFFFF"/>
	<stop  offset="0.22" style="stop-color:#6ABF99"/>
	<stop  offset="0.71" style="stop-color:#01574F"/>
	<stop  offset="1" style="stop-color:#00524B"/>
</radialGradient>
<path class="st0" d="M124.1,37c45.3,0,83,33.2,89.8,76.4c-22.7,26.6-58.5,43.9-98.6,43.9c-5.4,0-10.6-0.3-15.5-0.8
	c-3.7-12.3-5.6-25.1-5.6-38c0-31.6,9.6-54.7,27.9-76.5l-1,1c-22.7,23.5-34.9,50.2-34.9,86.5c0,8.6,0.7,17,2.2,25.2
	c-6.8-1.4-13.2-3.4-19.3-5.9c-0.5-4.6-0.9-9.3-0.9-14.1c0-40.1,20-75.7,50.5-97.6C120.5,37.1,122.3,37,124.1,37L124.1,37z
	 M214.9,132.5c-2.3,42.3-34.1,77.1-75.2,84.3c-10.5-8.6-19.6-19.1-26.9-31c2.1,0.1,4.2,0.1,6.3,0.1c36.6,0,63.3-10.4,86.9-29.8
	c0.2-0.1,0.7-0.6,1-0.8c-21.9,15.6-45.2,23.9-76.8,23.9c-7.4,0-14.7-0.5-22-1.5c-2.4-4.7-4.5-9.5-6.3-14.5c7.7,1.3,15.8,2,24.4,2
	c31.2,0,60.2-9.7,82.4-26.4c1-0.8,3.6-3.3,6.1-6L214.9,132.5z M89.5,160.2c1.1,4.9,2.5,9.7,4,14.4c-7.2-1.8-14.1-4-20.7-6.8
	c-1.5-5-2.6-10.2-3.4-15.3C75.9,155.6,82.5,158.2,89.5,160.2L89.5,160.2z M97.4,184.4c4.3,9.8,9.7,18.9,16.1,27.1
	c0.9,1.1,3.6,3.8,6.7,6.5c-7.3-0.3-14.5-1.5-21.2-3.4c-9-10.1-16.3-21.6-21.6-34C84,182.3,90.7,183.6,97.4,184.4L97.4,184.4z
	 M98.9,214.6L98.9,214.6L98.9,214.6z M98.4,214.5L98.4,214.5L98.4,214.5z M98.4,214.5c-0.1,0-0.1-0.1-0.2-0.1
	C98.3,214.4,98.3,214.5,98.4,214.5z M98.2,214.4C73,207,52.4,189,41.5,165.6c9.4,5.7,19.9,10.2,31.1,13.6
	C79,192.3,87.7,204.2,98.2,214.4L98.2,214.4z M34.4,143c-0.9-5-1.3-10.2-1.3-15.5C33.1,90,56.2,57.6,89,44c-0.2,0.1-0.4,0.2-0.6,0.3
	C70.5,66,59.7,93.8,59.7,124c0,7.3,0.6,14.5,1.9,21.5c-8.1-4-15.7-9.1-23.2-15.1c0.3,0.3,0.8,0.8,1,1c7.2,6.7,14.8,12.5,22.8,17.2
	c1.1,5.7,2.7,11.2,4.5,16.5C54.4,159.3,43.5,151.8,34.4,143L34.4,143z"/>
<path class="st1" d="M38.7,55.5l2.1,2c3.9-4.2,7.5-8,10.9-11.2l-2.1-2c-0.5,0.5-1,1-1.4,1.5L48.1,44C48,44,47.3,44,46,44h-1.1
	l1.5-1.4l-2.2-2.1c-0.7,0.9-2,2.1-3.5,3.8l-1.9-1.9c2-2.1,3.4-3.4,4.2-4.2l-2.2-2.1C37.2,40,33.7,43.6,30.2,47l2.2,2.1
	c1.3-1.5,2.7-2.9,4-4.3l1.9,1.9c-1.2,1.2-2.4,2.5-3.7,3.7l2.1,2.1l3.6-3.8l2.6,2.5l-4.4,4.5L38.7,55.5z M45.4,48.7l-2.6-2.5l1.3-1.3
	c0,0.7-0.1,1.3-0.2,2c1.4-0.1,2.6-0.1,3.4,0L45.4,48.7z M24.2,46.8l17,16.4c0.1,0.2,0.3,0.3,0.4,0.5l2.3-2.4L43.7,61l11.6-11.9
	l0.4,0.4l2.4-2.4L42.1,32c-0.6-0.6-1.2-1.2-1.8-1.8L24.5,46.5C24.4,46.6,24.3,46.8,24.2,46.8L24.2,46.8z M41.6,59L28.7,46.5
	l11.6-11.9l12.9,12.5L41.6,59z M76,36.8c0.7-0.4,1.3-0.8,1.7-1.3c0.6-0.7,0.9-1.5,0.8-2.4c-0.2-1.5-1.1-3.6-2.9-6
	c0.2-0.3,0.4-0.6,0.7-0.9c1.3,1.4,2.6,2.4,3.7,3.1c1.8,1.1,4.2,1.8,7,2c0.2-1.2,0.4-2.5,0.7-3.7c-3.8,0.3-7.1-1-9.7-3.9l2-3.4
	c-1.6-0.3-2.8-0.6-3.6-0.9c-0.7,1.9-1.7,3.8-2.8,5.7c-0.9-0.5-1.8-0.7-2.7-0.9l1.9-2.7c-0.5-0.1-0.9-0.1-1.4-0.2l6-2.8l-1.3-2.7
	l-14.7,7.2l1.3,2.7c1.9-1,3.8-2,5.7-2.9C66.4,25,64,27.2,61.1,29c1.4,0.8,2.3,1.5,2.8,1.9c1.8-1.6,3.5-3.1,5-4.7
	c0.1,0.1,0.2,0.1,0.4,0.1c-2,3.1-4.2,5.5-6.7,7.3c1.2,0.7,2.1,1.3,2.7,1.9c2.4-2.3,4.6-4.9,6.6-8c0.2,0.1,0.3,0.3,0.5,0.4
	c-2.1,4.2-5.1,7.6-8.7,10.4c1.2,0.6,2.1,1.2,2.9,1.9c3.5-3.6,6.1-6.8,7.6-9.5c0.5,1.1,0.8,1.9,0.7,2.3c-0.1,0.5-0.3,0.8-0.9,1.1
	c-0.5,0.3-1.1,0.5-1.7,0.6c1,0.8,1.9,1.7,2.5,2.6c0.3-0.2,0.7-0.4,1.1-0.6L76,36.8z M58.4,26.1l3.1-1.5c-0.3-0.6-0.8-1.6-1.5-3
	l15.9-7.7l1.5,3.1l3.1-1.5c-1.1-2-2-3.9-2.9-5.8L68,14.4l0.4-0.8c-2.1-0.6-3.2-0.8-3.5-1c-0.6,1-1.3,1.9-2,2.7
	c0.7,0.2,1.3,0.4,1.9,0.6l-9.4,4.5L58.4,26.1L58.4,26.1z M94.2,5c0.7,4.7,1.3,10,1.9,15.8l3.4-0.4l-0.1-0.4l5.2-0.6
	c0.4,3.1,0.6,4.9,0.8,5.3c0.2,0.5,0.6,0.9,1.2,1.1c1,0.2,4.6-0.1,10.8-0.8c0.1-0.1,0.2-0.1,0.3-0.1c0.4-0.1,0.8-0.3,1.2-0.4
	c0.6-0.3,1.1-0.8,1.4-1.7c0.2-0.7,0.4-1.7,0.6-2.8c-1.2-0.3-2.4-0.7-3.5-1.2c0,1.3-0.2,2.2-0.6,2.7c-0.3,0.3-1.8,0.7-4.5,1
	c-1.1,0.2-1.9,0.2-2.5,0.3c-0.4,0-0.6,0-0.8-0.1c-0.4-0.1-0.6-0.3-0.7-0.8l-0.4-2.9l6-0.7l0.1,0.5l3.4-0.4c-0.8-5.2-1.5-10.5-2-15.8
	l-9.4,1.3c-0.2-1.5-0.3-2.8-0.3-3.7l-3.4,0.4l0.5,3.7L94.2,5L94.2,5z M98.4,10.9L98,7.8l5.2-0.6l0.4,3.1L98.4,10.9z M99.1,16.9
	l-0.4-3.1l5.2-0.6l0.4,3.1L99.1,16.9z M106.9,9.9l-0.4-3.1l6-0.7l0.4,3.1L106.9,9.9z M107.6,15.9l-0.4-3.1l6-0.7l0.4,3.1L107.6,15.9
	z M130.7,23.2l3.6,0.6l1.2-6.9c0.6,0.8,1.2,1.7,1.7,2.7c1.3-1.3,2.3-2.4,3.1-3.4c0.2,0.7,0.3,1.3,0.4,2c1-0.6,2-1.1,3-1.5l-1.4-4
	c0.4-0.9,0.9-1.9,1.3-3c0.9,1.6,1.6,3.1,2,4.5c-1.5,2.7-3.1,4.5-4.8,5.4c1.1,0.8,1.9,1.6,2.4,2.4c1.2-0.9,2.5-2.3,3.9-4.1
	c0.3,1.1,0.6,2.1,0.7,3.1c1.3-0.9,2.3-1.5,2.9-1.9l-1.2-3.3l-0.5-1.4c0.6-1.6,1.2-3,1.5-4.1c0.4-1.1,0.6-2,0.8-2.4
	c-0.9-0.2-2-0.5-3.3-1c-0.2,1.1-0.5,2.3-0.9,3.5c-0.3-0.7-0.6-1.4-1-2c-0.7,0.5-1.6,0.8-2.6,1.2c0.7-1.8,1.1-2.8,1.2-3.1
	c-1.3-0.4-2.4-0.7-3.2-1.2c-0.3,1.3-0.6,2.5-1.1,3.7l-1.1-2.3c-0.9,0.5-1.7,0.8-2.5,1l0.6-3.7L153,6.6l-2.8,16
	c-0.1,0.4-0.2,0.7-0.4,0.8c-0.5,0.2-1.4,0-2.9-0.5c0.4,1.5,0.6,2.9,0.5,4c2.6,0.3,4.2,0.2,4.9-0.4c0.5-0.3,0.9-1.4,1.2-3.2L157,3.9
	c-8.5-1.4-15.9-2.7-22.2-3.9C133.6,7.3,132.3,15,130.7,23.2L130.7,23.2z M136.9,8.2c0.7,1.4,1.3,2.8,1.9,4.2
	c-0.7,1.5-1.9,2.9-3.4,4.1L136.9,8.2z M168.8,22.1c4.3-1,8.1-2.5,11.6-4.9c0.5-0.4,1.3-0.8,2.3-1.5c-0.9-0.9-1.7-1.8-2.4-2.9
	c-3.7,3.4-7.8,5.3-12.5,5.5h-0.1C168.1,19.2,168.6,20.5,168.8,22.1L168.8,22.1z M184.9,39.6c-0.3-2.3-0.9-5.6-1.7-10
	c-0.9,0.2-2,0.2-3.5,0.1c0.4,1.5,0.7,3.1,0.9,4.6l-9.5-4.2c2.7-1,6.1-2.5,10.2-4.7c-0.8-1-1.5-2.1-2.3-3.5c-3,2.9-6.6,4.9-10.8,6
	c-0.6,0.1-1.3,0.2-2.1,0.2c0.2,1.2,0.1,2.5-0.2,3.9c0.2,0.1,0.3,0.1,0.5,0.1c1.5,0.3,6.3,2,14.3,5.3c0.1,1.1,0.2,2,0.1,3
	C182.2,40,183.5,39.8,184.9,39.6L184.9,39.6z M185.3,16c-0.1,0.4-0.3,1-0.5,1.9c-0.4,1.1-0.5,2.5-0.4,4.1c0,3.7,1.3,6.9,3.8,10
	c1.5-1.2,2.7-1.9,3.5-2.3c-3-2.5-4.3-5.7-3.9-9.3c0.2-1.5,0.5-2.7,1.2-3.7c-1-0.4-2.1-1-3.2-1.8C185.5,15.2,185.4,15.6,185.3,16
	L185.3,16z M217.7,48.7c-5.1-5.1-9.3-9.4-12.6-13l-2.3,2.2c3.3,3.1,7.5,7.4,12.7,13L217.7,48.7L217.7,48.7z M207.3,34.6
	c1.4,1.4,5.9,5.9,13.5,13.7L208.7,60c-0.4,0.4-0.6,0.5-0.8,0.6c-0.2,0-0.6-0.2-1-0.6l-1.5-1.6c-0.6,1.4-1.2,2.5-2,3.4
	c1.2,1.1,2.3,1.9,3.1,2.3c0.9,0.5,1.6,0.6,2.1,0.4c0.3-0.2,5.2-4.8,14.7-13.9l2.1-2c-5.7-5.7-11-11.1-15.8-16.3L207.3,34.6
	L207.3,34.6z M203.1,40.8l-7.2,6.9c3.6,3.4,6.9,6.7,9.7,10.1c2.7-2.9,5.1-5.1,7.2-6.9C208.8,46.9,205.6,43.5,203.1,40.8L203.1,40.8z
	 M205.6,53.1l-5.1-5.2l2.7-2.5l5.1,5.2L205.6,53.1z"/>
<path class="st1" d="M13.4,72.2l5.6,1L18.7,75c-1.4,0-2.7,0.3-3.8,0.9c-1.1,0.6-1.9,1.4-2.3,2.5c-0.3,0.7-0.4,1.4-0.3,2.1
	c0.1,0.6,0.4,1.1,0.9,1.4c0.7,0.4,1.7-0.3,3.1-2.1c0.2-0.3,0.4-0.5,0.5-0.6c0.8-1,1.4-1.7,1.9-2.2c0.4-0.5,0.8-0.7,1.1-0.9
	c0.6-0.3,1.2-0.5,1.8-0.5c0.6,0,1.2,0.2,1.9,0.5c1.2,0.6,1.9,1.6,2.2,3.1c0.3,1.4,0.2,2.9-0.5,4.3c-0.3,0.6-0.6,1.1-1,1.6
	c-0.4,0.5-0.9,0.8-1.4,1.2l0.5,0.7l-0.6,1.3l-4.4-0.9l0.2-1.6c1.1-0.1,2.1-0.3,3-0.8c0.9-0.5,1.5-1.2,1.9-2.1
	c0.3-0.6,0.4-1.2,0.4-1.8c-0.1-0.5-0.3-0.9-0.7-1.1c-0.6-0.4-1.8,0.4-3.2,2.4c-0.3,0.4-0.6,0.7-0.8,1c-1.2,1.5-2.2,2.4-3.1,2.8
	c-0.9,0.3-1.9,0.2-2.9-0.4c-1.3-0.7-2.2-1.9-2.5-3.4c-0.4-1.6-0.1-3.2,0.7-4.9c0.3-0.5,0.6-1,1-1.5c0.4-0.5,1-1,1.7-1.5l-0.7-0.7
	l0.6-1.2L13.4,72.2z M18,94.9l0.1-0.3c0.3-0.9,0.3-1.8,0-2.5c-0.3-0.8-0.8-1.6-1.7-2.5l1-1.3l3.8,3l-3.5,12.3l-4.7,0.3l-0.1-1.6
	c1.2-0.2,2.1-0.5,2.7-1.1c0.6-0.5,1.1-1.2,1.3-2.1l0.1-0.3l-7.8-2.5c-1.1-0.4-1.8-0.5-2.2-0.3c-0.4,0.2-0.6,0.5-0.8,1.2l-1.7-0.5
	l2.1-7.4l1.7,0.6c-0.2,0.7-0.2,1.2,0.1,1.5c0.2,0.3,0.9,0.7,2,1.1l7.8,2.5L18,94.9z M2.1,107l1.3-6.4l1.8,0.4
	c-0.1,1.1,0.5,2.1,1.9,3.1l0.1,0.1l9.2,6.8l-0.7,3.4l-11.4,2c-0.9,0.2-1.4,0.3-1.7,0.6c-0.3,0.2-0.5,0.6-0.7,1.1L0,117.7l1.5-7.5
	l1.7,0.4l-0.1,0.2c-0.1,0.5-0.1,1-0.1,1.2c0.1,0.3,0.3,0.4,0.6,0.5c0.1,0,0.2,0.1,0.3,0.1c0.1,0,0.2,0,0.3-0.1l2.1-0.4l1-4.9
	L5.6,106c-0.1,0-0.2-0.1-0.3-0.2c-0.1-0.1-0.1-0.1-0.2-0.1c-0.3-0.1-0.6,0-0.8,0.3c-0.2,0.3-0.4,0.6-0.5,1.3L2.1,107L2.1,107z
	 M9,108.3l-0.6,3.3l4.5-0.5L9,108.3L9,108.3z M13.1,124.3v-0.3c0.1-1-0.2-1.8-0.6-2.4c-0.4-0.7-1.2-1.3-2.2-2l0.6-1.5l4.4,2
	l-0.6,12.8l-4.5,1.5l-0.5-1.5c1.1-0.5,1.9-1.1,2.4-1.7c0.5-0.6,0.8-1.4,0.8-2.4v-0.3l-8.1-0.5c-1.2-0.1-1.9,0-2.2,0.3
	c-0.3,0.2-0.5,0.7-0.6,1.4l-1.8-0.1l0.4-7.7l1.8,0.1c0,0.7,0.1,1.2,0.4,1.5c0.3,0.3,1,0.4,2.2,0.5L13.1,124.3L13.1,124.3z
	 M0.6,135.5l1.8-0.2c0.1,0.7,0.3,1.2,0.7,1.4c0.3,0.2,1.1,0.2,2.2,0.1l5.5-0.7c1.2-0.2,1.9-0.4,2.1-0.6c0.3-0.3,0.4-0.8,0.3-1.5
	l1.8-0.2l1.5,12.9l-4.1,2.7l-0.8-1.3c1-1,1.8-2,2.2-3c0.4-1.1,0.6-2.2,0.5-3.3c-0.1-0.7-0.3-1.2-0.5-1.3c-0.3-0.2-0.7-0.3-1.5-0.2
	l-2.1,0.3l0.1,0.7c0.1,0.8,0.3,1.3,0.6,1.6c0.3,0.3,1,0.3,1.9,0.3l0.2,1.6l-6.5,0.8l-0.2-1.6c0.8-0.2,1.4-0.5,1.8-0.9
	c0.4-0.4,0.5-0.9,0.4-1.5l-0.1-0.7l-3.4,0.4c-0.8,0.1-1.3,0.3-1.4,0.5c-0.2,0.3-0.3,0.7-0.2,1.5c0.2,1.2,0.6,2.3,1.4,3.4
	c0.8,1.1,1.9,1.9,3.2,2.5l-0.6,1.6l-5.2-1.7l-1.5-13.2L0.6,135.5z M11.1,178.6l0.9-1.1c-0.7-0.4-1.3-1-1.8-1.6
	c-0.5-0.7-0.9-1.4-1.2-2.2c-0.4-1-0.6-2-0.6-2.8c0-0.9,0.2-1.8,0.5-2.7c0.4-0.9,1-1.8,1.8-2.5c0.8-0.8,1.7-1.4,2.7-1.9
	c1.1-0.5,2.1-0.7,3-0.8c1-0.1,1.9,0.2,2.8,0.5c0.9,0.4,1.7,1,2.4,1.8c0.7,0.8,1.3,1.7,1.7,2.8c0.2,0.5,0.4,1.1,0.5,1.7
	c0.1,0.6,0.1,1.2,0.1,1.9l0.7,0.1l0.5,1.3l-4.1,3.4l-1.2-1.4c0.9-1.2,1.5-2.3,1.8-3.3c0.3-1,0.2-2-0.2-2.9c-0.5-1.2-1.3-1.9-2.4-2.1
	c-1.1-0.2-2.5,0.1-4.2,0.8c-1.6,0.7-2.8,1.6-3.4,2.6c-0.6,1-0.7,2.1-0.2,3.3c0.4,0.9,0.8,1.5,1.5,1.9c0.6,0.4,1.3,0.4,2,0.1
	c0.5-0.2,0.8-0.5,0.9-0.9c0.1-0.4,0.1-0.9-0.2-1.5l1.5-0.7l2.7,6.8l-1.6,0.7c-0.4-0.6-0.7-1-1.1-1.1c-0.4-0.1-0.9,0-1.5,0.3
	l-3.6,1.6L11.1,178.6L11.1,178.6z M14,184.8l1.4-1.1c0.4,0.6,0.8,0.8,1.2,0.9c0.4,0,1.1-0.3,2-1.1l4.6-3.4c1-0.7,1.5-1.3,1.6-1.6
	c0.1-0.4,0-0.9-0.4-1.5l1.4-1.1l4.6,7.1c1.1,1.7,1.7,3.2,1.7,4.5c0,1.3-0.5,2.3-1.6,3.1c-0.8,0.6-1.6,0.8-2.4,0.8
	c-0.8-0.1-1.7-0.5-2.6-1.3l-1.4,4.7c-0.2,0.6-0.3,1.1-0.2,1.5c0.1,0.4,0.2,0.8,0.4,1.3l-1.4,1.1l-2.6-4l2.6-7.8l-0.7-1.1l-1.5,1.1
	c-1,0.7-1.5,1.3-1.6,1.6c-0.1,0.4,0,0.9,0.4,1.5l-1.5,1.1l-4.2-6.3L14,184.8z M23.9,184.6c0.1,0.1,0.1,0.2,0.2,0.3
	c0.1,0.1,0.2,0.2,0.3,0.4c0.7,1.1,1.4,1.9,2.1,2.2c0.7,0.3,1.3,0.3,2-0.2c0.6-0.4,0.9-1,0.9-1.7c0.1-0.7-0.2-1.5-0.7-2.3
	c-0.4-0.5-0.7-0.8-1-0.9c-0.3-0.1-0.8,0.2-1.4,0.6L23.9,184.6L23.9,184.6z M39.9,196.2l-1.4,1.2c-0.4-0.5-0.9-0.8-1.2-0.7
	c-0.4,0-1,0.4-1.9,1.2l-4.3,3.9c-0.9,0.8-1.4,1.4-1.4,1.8c-0.1,0.4,0.1,0.9,0.5,1.4l-1.4,1.2l-4.6-5.9l1.4-1.2
	c0.4,0.5,0.9,0.8,1.2,0.7c0.4,0,1-0.4,1.9-1.2l4.3-3.9c0.9-0.8,1.4-1.4,1.5-1.8c0.1-0.4-0.1-0.9-0.5-1.4l1.4-1.2L39.9,196.2
	L39.9,196.2z M42,204l-5.1,5.7c-0.5,0.6-0.8,1.1-0.8,1.4c0,0.3,0.3,0.7,0.7,1.3c1.1,1.1,2.2,1.6,3.5,1.5c1.3-0.1,2.6-0.8,3.7-2.2
	c1.2-1.3,1.8-2.7,1.9-4.1c0.1-1.4-0.4-2.7-1.5-3.7c-0.5-0.5-0.9-0.7-1.2-0.7c-0.3,0-0.7,0.3-1.3,1L42,204z M30.5,208.3l1.2-1.4
	c0.5,0.5,1,0.7,1.3,0.6c0.4-0.1,1-0.5,1.8-1.4l3.9-4.3c0.8-0.9,1.2-1.5,1.3-2c0.1-0.4-0.2-0.9-0.6-1.4l1.2-1.4l5.3,5.5
	c2,2.1,3.1,4.1,3.3,6.2c0.2,2.1-0.5,4-2.1,5.8c-1.7,1.8-3.4,2.7-5.4,2.5c-1.9-0.2-3.9-1.2-5.9-3.3L30.5,208.3L30.5,208.3z
	 M68.2,231.5l1.2,1.8c-1.4,1-2.7,1.5-4.1,1.7c-1.4,0.1-2.7-0.2-3.9-1c-0.9-0.5-1.6-1.2-2.2-2c-0.6-0.8-1.1-1.7-1.4-2.7
	c-0.3-1.1-0.4-2.2-0.3-3.2c0.2-1.1,0.5-2.2,1.1-3.3c0.6-1.1,1.3-2,2.1-2.7c0.8-0.7,1.8-1.1,2.8-1.4c0.9-0.2,1.7-0.3,2.6-0.1
	c0.9,0.2,1.7,0.5,2.5,1c0.5,0.3,0.9,0.7,1.3,1.1c0.4,0.4,0.7,1,1.1,1.5l0.6-0.6l1.1,0.7l-1.1,5.9l-1.7-0.4c0.2-1.5,0.1-2.8-0.3-3.8
	c-0.3-1.1-0.9-1.9-1.7-2.3c-1-0.6-2-0.6-3,0c-1.1,0.6-2,1.7-2.9,3.3c-0.9,1.6-1.3,3.1-1.2,4.3c0.1,1.3,0.7,2.2,1.7,2.9
	c0.7,0.5,1.6,0.6,2.6,0.5c1-0.1,2-0.5,3-1.1L68.2,231.5z M75.8,232.5c-0.6,1.9-0.8,3.4-0.6,4.7c0.3,1.3,1,2.1,2.1,2.6
	c1.1,0.5,2.2,0.3,3.2-0.4c1-0.7,1.8-2.1,2.5-3.9c0.6-1.9,0.8-3.4,0.6-4.7c-0.3-1.3-1-2.1-2.1-2.6c-1.1-0.5-2.2-0.3-3.1,0.4
	C77.4,229.4,76.5,230.7,75.8,232.5L75.8,232.5z M72,230.9c0.8-2.3,2.1-3.8,4-4.7c1.9-0.8,3.9-0.8,6.1,0.1c2.2,0.9,3.7,2.3,4.6,4.3
	c0.9,2,0.9,4.1,0.1,6.4c-0.8,2.3-2.1,3.8-4,4.7c-1.9,0.8-3.9,0.8-6.1-0.1c-2.2-0.9-3.7-2.3-4.6-4.3C71.2,235.3,71.2,233.2,72,230.9
	L72,230.9z M86.6,245l0.4-1.9c0.6,0.2,1.1,0.1,1.4-0.2c0.3-0.3,0.6-1,0.8-2.2l1.3-5.8c0.3-1.2,0.3-2,0.2-2.4
	c-0.2-0.4-0.5-0.7-1.2-0.8l0.4-1.9l7.9,2c1.9,0.5,3.2,1.2,4,2.1c0.8,0.9,1.1,2.1,0.7,3.4c-0.2,1-0.6,1.8-1.3,2.3
	c-0.6,0.5-1.5,0.8-2.7,0.9l1.9,4.5c0.3,0.6,0.5,1,0.8,1.3c0.3,0.3,0.6,0.5,1.1,0.7l-0.4,1.8l-4.5-1.1l-2.9-7.7l-1.2-0.3l-0.4,1.9
	c-0.3,1.2-0.3,2-0.2,2.4c0.2,0.4,0.6,0.7,1.2,0.8l-0.4,1.9l-7-1.8L86.6,245z M93.8,237.6c0.1,0.1,0.2,0.1,0.3,0.1
	c0.1,0.1,0.3,0.1,0.4,0.1c1.2,0.3,2.2,0.3,2.9,0.1c0.7-0.3,1.1-0.7,1.3-1.6c0.2-0.7,0-1.4-0.4-1.9c-0.4-0.5-1.1-1-2-1.2
	c-0.6-0.2-1.1-0.1-1.3,0.1c-0.3,0.2-0.5,0.7-0.6,1.5L93.8,237.6L93.8,237.6z M110.2,241.5c0.1,0,0.2,0.1,0.3,0.1s0.2,0.1,0.4,0.1
	c1.2,0.2,2.1,0.1,2.8-0.3c0.6-0.4,1-1,1.1-1.9c0.1-0.8-0.1-1.5-0.5-2c-0.4-0.5-1.1-0.8-2-1c-0.6-0.1-1,0-1.2,0.2
	c-0.2,0.2-0.4,0.7-0.5,1.5L110.2,241.5z M113.4,234.6c1.9,0.3,3.2,0.8,4.1,1.8c0.8,0.9,1.2,2.1,1,3.7c-0.2,1.5-0.7,2.5-1.8,3.2
	c-1,0.6-2.4,0.8-4.2,0.6l-2.6-0.4l-0.2,1.6c-0.2,1.2-0.1,2,0.1,2.4c0.2,0.4,0.6,0.6,1.3,0.7L111,250l-7.1-1l0.2-1.9
	c0.7,0.1,1.1-0.1,1.4-0.4c0.3-0.3,0.5-1.1,0.6-2.3l0.7-5.9c0.2-1.2,0.1-2-0.1-2.4c-0.2-0.4-0.6-0.6-1.3-0.7l0.2-1.9l7.9,1.1
	L113.4,234.6z M123.7,242.9c0.1,2,0.4,3.5,1.1,4.6c0.7,1.1,1.7,1.5,2.9,1.5c1.2-0.1,2.1-0.6,2.8-1.7c0.6-1.1,0.9-2.7,0.9-4.6
	c-0.1-2-0.4-3.5-1.2-4.6c-0.7-1.1-1.7-1.5-2.9-1.5c-1.2,0.1-2.1,0.6-2.8,1.7C123.9,239.4,123.6,240.9,123.7,242.9L123.7,242.9z
	 M119.7,243c-0.1-2.4,0.6-4.5,2-6c1.4-1.5,3.2-2.4,5.6-2.4c2.3-0.1,4.3,0.6,5.8,2c1.5,1.4,2.3,3.4,2.4,5.8c0.1,2.4-0.6,4.5-2,6
	c-1.4,1.5-3.3,2.4-5.6,2.4c-2.3,0.1-4.3-0.6-5.8-2C120.6,247.4,119.8,245.5,119.7,243L119.7,243z M138.3,250.1l-0.3-1.9
	c0.6-0.2,1.1-0.4,1.2-0.8c0.2-0.4,0.2-1.2-0.1-2.4l-1-5.9c-0.2-1.2-0.4-2-0.7-2.3c-0.3-0.3-0.7-0.4-1.4-0.3l-0.3-1.9l8-1.5
	c1.9-0.4,3.4-0.3,4.5,0.2c1.1,0.5,1.7,1.5,2,2.9c0.2,1.1,0.1,1.9-0.4,2.7c-0.4,0.7-1.1,1.4-2.1,2l3.4,3.3c0.4,0.4,0.8,0.7,1.2,0.8
	c0.4,0.2,0.8,0.2,1.3,0.2l0.3,1.9l-4.5,0.8l-5.5-5.8l-1.2,0.2l0.3,1.9c0.2,1.2,0.4,2,0.7,2.2c0.3,0.3,0.7,0.4,1.4,0.3l0.3,1.9
	L138.3,250.1L138.3,250.1z M142.3,240.3c0.1,0,0.2,0,0.3-0.1c0.1,0,0.3-0.1,0.4-0.1c1.3-0.2,2.2-0.6,2.7-1.1c0.5-0.5,0.7-1.2,0.6-2
	c-0.1-0.7-0.5-1.3-1.1-1.6c-0.6-0.3-1.3-0.4-2.2-0.3c-0.6,0.1-1,0.3-1.2,0.6c-0.2,0.3-0.2,0.8-0.1,1.6L142.3,240.3L142.3,240.3z
	 M160.8,245.1l-5.8,2.1l-0.6-1.8c0.9-0.5,1.4-1.6,1.5-3.3V242l0.7-11.9l3.1-1.2l7.5,9.5c0.6,0.7,1,1.1,1.3,1.3
	c0.3,0.2,0.7,0.2,1.3,0.1l0.6,1.8l-6.8,2.5l-0.6-1.8l0.2-0.1c0.5-0.2,0.9-0.4,1-0.6c0.2-0.2,0.2-0.5,0.1-0.8
	c-0.1-0.1-0.1-0.2-0.2-0.3c-0.1-0.1-0.1-0.2-0.2-0.3l-1.4-1.8l-4.4,1.6l0.1,2.2c0,0.2,0,0.2,0.1,0.3c0,0.1,0.1,0.2,0.1,0.2
	c0.1,0.3,0.3,0.5,0.6,0.6c0.3,0.1,0.7,0,1.3-0.2L160.8,245.1L160.8,245.1z M158.3,238.1l3-1.1l-2.8-3.9L158.3,238.1L158.3,238.1z
	 M170.5,226.9l-0.3,0.1c-0.8,0.4-1.4,0.9-1.8,1.6c-0.4,0.7-0.6,1.8-0.7,3l-1.5,0.1l-0.3-5.1l11-5l3.2,3.7l-1.1,1.1
	c-0.9-0.8-1.7-1.4-2.5-1.5c-0.7-0.2-1.5-0.1-2.3,0.2l-0.3,0.1l3.1,8c0.4,1.1,0.9,1.8,1.2,2c0.3,0.2,0.8,0.2,1.4-0.1l0.7,1.8l-6.7,3
	l-0.7-1.8c0.6-0.3,1-0.6,1.1-1.1c0.1-0.4-0.1-1.2-0.5-2.3L170.5,226.9L170.5,226.9z M187,215.2l1,1.6c-0.5,0.4-0.9,0.8-0.9,1.2
	c-0.1,0.4,0.3,1.2,0.9,2.2l3,5.1c0.6,1.1,1.1,1.6,1.4,1.8c0.4,0.2,0.9,0.1,1.4-0.3l1,1.6l-6.1,4.1l-1-1.6c0.5-0.4,0.9-0.8,0.9-1.2
	c0.1-0.4-0.3-1.2-0.9-2.2l-3-5.1c-0.6-1.1-1.1-1.7-1.5-1.8c-0.4-0.2-0.8-0.1-1.4,0.3l-1-1.6l6.1-4.1L187,215.2z M195.8,218.2
	c1.2,1.5,2.3,2.5,3.5,2.9c1.2,0.4,2.2,0.2,3.1-0.6c1-0.8,1.3-1.9,1.2-3.2c-0.1-1.3-0.7-2.7-1.9-4.2c-1.2-1.5-2.3-2.5-3.5-2.9
	c-1.2-0.4-2.2-0.2-3.1,0.6c-1,0.8-1.3,1.9-1.2,3.1C194,215.3,194.7,216.7,195.8,218.2L195.8,218.2z M192.7,221c-1.4-1.9-2-3.9-1.8-6
	c0.3-2.1,1.3-4,3.1-5.6c1.8-1.6,3.7-2.3,5.7-2.1c2,0.2,3.7,1.2,5.2,3.1c1.4,1.9,2,3.9,1.8,6c-0.3,2.2-1.3,4-3.1,5.6
	c-1.8,1.6-3.7,2.3-5.7,2.1C195.8,223.9,194.1,222.9,192.7,221L192.7,221z M211.8,214.9l-1.3-1.3c0.4-0.6,0.6-1.1,0.5-1.4
	c-0.1-0.4-0.5-1-1.4-1.9l-4.2-4c-0.8-0.8-1.5-1.3-1.9-1.3c-0.4-0.1-0.8,0.2-1.3,0.7l-1.3-1.3l4.2-4.9l9.5,2l-2.9-2.8
	c-0.9-0.8-1.5-1.3-1.9-1.3c-0.4-0.1-0.8,0.2-1.3,0.7l-1.3-1.2l3.6-4.3l1.3,1.3c-0.4,0.5-0.6,1-0.5,1.4c0.1,0.4,0.5,1,1.4,1.9
	l7.5,7.2l-1.8,2.1l-12.9-2.6l5,4.8c0.9,0.8,1.5,1.3,1.9,1.3c0.4,0.1,0.8-0.2,1.3-0.7l1.3,1.3L211.8,214.9L211.8,214.9z M226.5,182.3
	c1.6,1,3,1.4,4.2,1.3c1.2-0.1,2.1-0.7,2.7-1.9c0.6-1.1,0.6-2.3,0.1-3.4c-0.6-1.2-1.7-2.2-3.2-3.2c-1.6-1-3-1.4-4.2-1.3
	c-1.2,0.1-2.1,0.7-2.7,1.9c-0.6,1.1-0.6,2.3-0.1,3.4c0.5,1.1,1.7,2.2,3.2,3.1L226.5,182.3z M224.6,186.1c-2-1.2-3.2-2.8-3.8-4.9
	c-0.5-2.1-0.2-4.2,0.9-6.4c1.1-2.2,2.7-3.6,4.6-4.2c1.9-0.6,3.9-0.4,5.9,0.8c2,1.2,3.2,2.8,3.8,4.9c0.5,2.1,0.2,4.2-0.9,6.5
	c-1.1,2.2-2.7,3.6-4.6,4.2C228.5,187.6,226.5,187.4,224.6,186.1L224.6,186.1z M232.7,163.9l0.2-0.5c0.2-0.7,0.3-1.3,0.1-1.7
	c-0.2-0.4-0.7-0.7-1.6-1.1l0.5-1.5l6.4,2.2l-0.5,1.5c-0.9-0.2-1.5-0.2-2,0.1c-0.5,0.2-0.8,0.6-1,1.2l-0.2,0.5l2.3,0.8
	c1.1,0.4,1.8,0.5,2.2,0.4c0.4-0.2,0.7-0.5,0.9-1.2l1.7,0.6l-2.2,7.3l-1.7-0.6c0.2-0.7,0.2-1.2-0.1-1.5c-0.2-0.3-0.9-0.7-2-1.1
	l-5.3-1.9c-1.1-0.4-1.8-0.5-2.2-0.4c-0.4,0.1-0.7,0.5-0.9,1.2l-1.7-0.6l3.6-11.9l4.6-0.6l0.3,1.6c-1.2,0.4-2.2,0.9-2.9,1.6
	c-0.8,0.7-1.3,1.6-1.7,2.7c-0.2,0.7-0.2,1.2-0.1,1.4c0.2,0.3,0.6,0.6,1.3,0.8L232.7,163.9L232.7,163.9z M242.7,129.7l1-1.9
	c1.4,0.9,2.5,2,3.2,3.2c0.7,1.3,1,2.7,0.9,4.2c-0.1,1-0.3,2.1-0.7,3c-0.4,1-1,1.8-1.6,2.5c-0.7,0.7-1.6,1.3-2.6,1.7
	c-1,0.3-2,0.5-3.2,0.4c-1.2-0.1-2.2-0.4-3.1-0.8c-0.9-0.5-1.7-1.2-2.4-2.1c-0.5-0.7-1-1.5-1.2-2.4c-0.3-0.9-0.4-1.9-0.3-2.8
	c0.1-0.6,0.2-1.2,0.3-1.8c0.2-0.6,0.4-1.1,0.8-1.7l-0.8-0.3l0.1-1.4l5.4-1.5l0.4,1.7c-1.3,0.5-2.3,1.1-3.1,1.9
	c-0.7,0.8-1.2,1.6-1.2,2.6c-0.1,1.2,0.4,2.2,1.3,3c1,0.8,2.3,1.2,4,1.4c1.8,0.1,3.1-0.2,4.2-0.8c1-0.7,1.6-1.6,1.7-2.9
	c0.1-0.9-0.2-1.8-0.7-2.8C244.3,131.1,243.6,130.4,242.7,129.7L242.7,129.7z M247.9,125.5l-1.8,0.2c-0.1-0.7-0.3-1.2-0.6-1.4
	c-0.3-0.2-1.1-0.3-2.2-0.2l-5.6,0.5c-1.2,0.1-1.9,0.3-2.2,0.6c-0.3,0.3-0.4,0.8-0.4,1.5l-1.8,0.2l-0.6-7.7l1.7-0.2
	c0.1,0.7,0.3,1.2,0.6,1.4c0.3,0.2,1.1,0.3,2.2,0.2l1.4-0.2l-0.5-5.7l-1.4,0.2c-1.2,0.1-1.9,0.3-2.2,0.6c-0.3,0.3-0.4,0.8-0.4,1.5
	l-1.7,0.2l-0.6-7.7l1.8-0.2c0.1,0.7,0.3,1.2,0.6,1.4c0.3,0.2,1.1,0.3,2.2,0.2l5.6-0.5c1.2-0.1,1.9-0.3,2.2-0.6
	c0.3-0.3,0.4-0.8,0.4-1.5l1.8-0.2l0.6,7.7l-1.8,0.2c-0.1-0.7-0.3-1.2-0.6-1.4c-0.3-0.2-1.1-0.3-2.2-0.2l-2.5,0.2l0.5,5.7l2.4-0.2
	c1.2-0.1,1.9-0.3,2.1-0.6c0.3-0.3,0.4-0.8,0.4-1.5l1.8-0.2L247.9,125.5L247.9,125.5z M230.1,101.7l1.7-0.5c0.2,0.7,0.4,1.1,0.8,1.3
	c0.4,0.2,1.1,0.1,2.2-0.2l5.4-1.4c1.1-0.3,1.8-0.6,2-1c0.3-0.3,0.3-0.8,0.2-1.5l1.8-0.5l1.8,7.5l-1.8,0.5c-0.2-0.7-0.4-1.1-0.8-1.3
	c-0.4-0.2-1.1-0.1-2.2,0.2l-5.4,1.4c-1.1,0.3-1.8,0.6-2.1,1c-0.3,0.3-0.3,0.8-0.2,1.5l-1.7,0.5L230.1,101.7L230.1,101.7z M243.2,93
	l-1.6,0.7c-0.3-0.6-0.6-1.1-1-1.2c-0.4-0.1-1.1,0.1-2.2,0.5l-5.2,2.2c-1.1,0.5-1.7,0.8-1.9,1.2c-0.2,0.4-0.2,0.8,0.1,1.5l-1.6,0.7
	l-2.3-6.2l5.8-8.3l-3.6,1.5c-1.1,0.5-1.7,0.8-1.9,1.2c-0.2,0.4-0.2,0.8,0.1,1.5l-1.6,0.7l-2-5.4l1.7-0.7c0.3,0.6,0.6,1,1,1.1
	c0.4,0.1,1.1-0.1,2.2-0.5l9.4-4l1,2.7l-7.8,11.2l6.3-2.7c1.1-0.5,1.7-0.9,1.9-1.2c0.2-0.4,0.2-0.8-0.1-1.5l1.6-0.7l2,5.4L243.2,93z
	 M234.1,70.8l3,5.7l-1.5,1c-0.6-0.9-1.7-1.3-3.3-1.1h-0.1L221,77.8l-1.6-3.1l7.4-9.5c0.5-0.7,0.8-1.3,1-1.6c0.1-0.4,0-0.8-0.2-1.3
	l1.5-0.9l3.5,6.7l-1.5,0.9l-0.1-0.2c-0.3-0.5-0.5-0.8-0.7-1c-0.2-0.2-0.5-0.2-0.7,0c-0.1,0.1-0.2,0.1-0.3,0.2
	c-0.1,0.1-0.2,0.2-0.2,0.3l-1.4,1.8l2.2,4.3l2.1-0.5c0.1-0.1,0.2-0.1,0.3-0.1c0.1,0,0.1-0.1,0.2-0.1c0.3-0.2,0.4-0.4,0.5-0.7
	c0-0.3-0.1-0.8-0.4-1.3l1.5-0.9L234.1,70.8z M228,74.7l-1.5-2.9l-3.1,3.6L228,74.7L228,74.7z"/>
<path class="st2" d="M123.9,29.7c54.1,0,98.3,44,98.3,97.9s-44.1,97.9-98.3,97.9s-98.3-44-98.3-97.9C25.6,73.6,69.8,29.7,123.9,29.7
	z"/>
</svg>
